<?xml version="1.0" standalone="no"?>
<!DOCTYPE svg PUBLIC "-//W3C//DTD SVG 1.1//EN" "http://www.w3.org/Graphics/SVG/1.1/DTD/svg11.dtd">
<svg xmlns="http://www.w3.org/2000/svg">
<defs >
<font id="Exo2" horiz-adv-x="558" ><font-face
    font-family="Exo 2"
    units-per-em="1000"
    panose-1="0 0 5 0 0 0 0 0 0 0"
    ascent="999"
    descent="-201"
    alphabetic="0" />
<glyph unicode=" " glyph-name="space" horiz-adv-x="223" />
<glyph unicode="!" glyph-name="exclam" horiz-adv-x="271" d="M191 389L158 211H91L107 389L150 695H234L191 389ZM150 118T150 95Q150 89 149 85L142 30Q138 0 109 0H86Q52 0 56 33L64 89Q66 104 74 111T98 118H121Q150 118 150 95Z" />
<glyph unicode="&quot;" glyph-name="quotedbl" horiz-adv-x="350" d="M157 475H99L124 690H193L157 475ZM302 475H243L268 690H337L302 475Z" />
<glyph unicode="#" glyph-name="numbersign" horiz-adv-x="682" d="M540 448L483 268H593L576 213H466L399 0H332L399 213H215L148 0H81L148 213H31L49 268H165L222 448H106L125 503H239L298 690H365L306 503H490L549 690H616L557 503H669L650 448H540ZM473 448H289L232
268H416L473 448Z" />
<glyph unicode="$" glyph-name="dollar" horiz-adv-x="564" d="M423 622T379 623L327 381L382 361Q446 337 473 303T500 215Q500 201 496 167Q486 93 457 55T377 2T239 -12H237L212 -127H170L195 -11Q117 -9 29 7L40 72Q90 70 105 70Q182 67 212 67L265 313L201
337Q141 359 114 395T87 486Q87 507 90 529Q100 604 130 641T208 690T334 702H354L375 799H417L396 700Q469 697 538 682L528 618Q423 622 379 623ZM338 623H331Q276 624 249 619T203 592T178 520Q176 508 176 489Q176 457 191 442T247 411L289 395L338 623ZM410
200T410 207Q410 239 395 255T339 286L304 299L254 67Q309 68 339 76T386 107T408 176Q410 200 410 207Z" />
<glyph unicode="%" glyph-name="percent" horiz-adv-x="894" d="M332 703T365 670T399 564Q399 537 394 495Q383 421 363 377T306 313T210 293Q135 293 102 325T68 431Q68 462 74 501Q85 575 105 619T162 683T257 703Q332 703 365 670ZM214 0H148L692 690H758L214
0ZM218 649T195 634T159 587T138 495Q133 453 133 430Q133 385 150 366T207 347Q248 347 272 362T308 409T329 501Q335 540 335 568Q335 612 318 630T259 649Q218 649 195 634ZM773 400T806 368T840 262Q840 230 834 191Q824 117 803 74T746 10T650 -10Q576 -10
543 22T509 127Q509 159 515 198Q525 272 545 316T602 380T698 400Q773 400 806 368ZM659 346T636 331T600 284T579 191Q574 148 574 125Q574 80 590 62T648 43Q689 43 713 58T749 106T770 198Q776 237 776 265Q776 309 759 327T700 346Q659 346 636 331Z" />
<glyph unicode="&amp;" glyph-name="ampersand" horiz-adv-x="755" d="M716 324H609Q592 212 547 141Q453 -11 234 -11Q133 -11 87 23T41 135Q41 156 44 178Q55 263 97 307T216 356L217 361Q114 368 114 474Q114 494 119 524Q131 597 163 635T246 686T380 700Q425
700 464 696T549 679L534 613Q469 628 382 628Q319 628 285 619T232 584T205 507Q202 486 202 469Q202 424 230 408T326 391H538Q541 436 541 486V520H619V486Q619 436 616 391H727L716 324ZM517 231T531 324H317Q257 323 222 312T167 271T137 186Q133 156 133
146Q133 100 158 83T244 65Q327 65 383 93T476 174Q517 231 531 324Z" />
<glyph unicode="&apos;" glyph-name="quotesingle" horiz-adv-x="206" d="M157 475H99L124 690H193L157 475Z" />
<glyph unicode="(" glyph-name="parenleft" horiz-adv-x="356" d="M393 749Q286 700 225 594T139 310Q128 230 128 170Q128 61 161 -12T265 -125L254 -164Q149 -121 98 -34T46 189Q46 240 56 317Q83 509 161 624T383 791L393 749Z" />
<glyph unicode=")" glyph-name="parenright" horiz-adv-x="356" d="M213 747T265 660T317 437Q317 374 307 307Q279 116 201 2T-21 -166L-30 -124Q75 -73 137 36T224 316Q235 396 235 457Q235 567 202 640T97 750L108 789Q213 747 265 660Z" />
<glyph unicode="*" glyph-name="asterisk" horiz-adv-x="448" d="M274 530L358 401L315 371L254 494L160 372L120 403L239 530L253 691H306L274 530ZM225 555L222 533L209 519L88 553L108 601L225 555ZM432 549L303 519L294 533L295 555L421 601L432 549Z" />
<glyph unicode="+" glyph-name="plus" horiz-adv-x="547" d="M489 267H303L278 90H213L238 267H51L60 331H247L271 507H337L312 331H498L489 267Z" />
<glyph unicode="," glyph-name="comma" horiz-adv-x="227" d="M119 118T125 113T132 96Q132 89 131 85L122 21Q118 -15 103 -55T66 -133L24 -118Q34 -89 42 -60T57 2Q43 1 36 8T31 29L39 88Q43 106 50 112T78 118H104Q119 118 125 113Z" />
<glyph unicode="-" glyph-name="hyphen" horiz-adv-x="447" d="M366 220H61L70 285H374L366 220Z" />
<glyph unicode="." glyph-name="period" horiz-adv-x="225" d="M119 118T125 110T130 85L123 30Q119 0 89 0H61Q27 0 31 33L39 89Q41 104 49 111T73 118H101Q119 118 125 110Z" />
<glyph unicode="/" glyph-name="slash" horiz-adv-x="524" d="M52 -66H-21L478 690H551L52 -66Z" />
<glyph unicode="0" glyph-name="zero" horiz-adv-x="601" d="M161 -13T111 42T60 213Q60 415 124 559T349 703Q455 703 505 649T556 479Q556 268 495 128T266 -13Q161 -13 111 42ZM358 64T402 128T459 280T472 476Q472 556 441 591T343 626Q222 626 183 505T144
214Q144 135 175 100T270 64Q358 64 402 128Z" />
<glyph unicode="1" glyph-name="one" horiz-adv-x="395" d="M242 0H155L232 549Q235 579 244 609L68 554L66 619L251 690H339L242 0Z" />
<glyph unicode="2" glyph-name="two" horiz-adv-x="557" d="M419 702T469 676T520 577Q520 503 480 439T362 300L136 81Q181 85 243 85H478L466 0H13L21 57Q24 82 36 94L269 320Q345 392 387 451T430 566Q430 602 403 613T315 624Q260 624 217 621T112 608L111
676Q179 691 226 696T322 702Q419 702 469 676Z" />
<glyph unicode="3" glyph-name="three" horiz-adv-x="550" d="M413 703T459 670T505 567Q505 519 491 474T448 399T380 365L379 361Q429 352 454 320T480 235Q480 116 407 52T201 -13Q110 -13 14 5L25 73L59 70Q135 64 167 64Q181 64 209 66Q298 72 345 116T392
237Q392 327 273 328L143 330L152 397H278Q421 398 421 556Q421 584 409 598T370 619T290 625Q217 625 119 617L116 685Q226 703 309 703Q413 703 459 670Z" />
<glyph unicode="4" glyph-name="four" horiz-adv-x="610" d="M552 178L462 169L438 0H355L379 169H110Q74 169 53 189T31 239Q31 261 45 284L295 690H384L134 280Q126 268 126 257Q126 241 150 241H389L417 444L449 558H516L472 241H561L552 178Z" />
<glyph unicode="5" glyph-name="five" horiz-adv-x="533" d="M500 615H210L174 427L245 421Q357 413 412 374T468 249Q468 125 395 56T190 -13Q106 -13 16 13L32 84Q111 65 172 65Q275 65 329 110T383 247Q383 286 364 307T304 337T192 350L127 355Q112 357 102
367T92 391Q92 397 93 400L149 690H515L500 615Z" />
<glyph unicode="6" glyph-name="six" horiz-adv-x="569" d="M432 450T471 414T511 309Q511 -12 254 -12Q183 -12 141 7T79 70T59 188Q59 243 70 328Q92 483 129 563T223 673T376 702Q473 702 526 687L509 623Q466 627 372 627Q309 627 271 606T206 529T162 366Q206
412 249 431T350 450Q432 450 471 414ZM350 63T389 122T428 286Q428 334 408 356T330 378Q284 378 242 358T152 292Q142 215 142 177Q142 114 169 89T265 63Q350 63 389 122Z" />
<glyph unicode="7" glyph-name="seven" horiz-adv-x="510" d="M503 690T515 682T527 657Q527 646 519 628L216 0H128L401 566Q421 604 430 617L84 615L90 690H481Q503 690 515 682Z" />
<glyph unicode="8" glyph-name="eight" horiz-adv-x="606" d="M427 700T472 686T537 642T557 564Q557 551 553 515Q543 445 515 405T433 359L431 355Q480 350 502 319T524 231Q524 206 519 169Q510 103 485 65T408 8T261 -10Q149 -10 99 25T48 134Q48 153 51 175Q63
261 94 306T189 358L191 362Q111 372 111 474Q111 487 115 521Q124 586 147 624T218 681T349 700Q427 700 472 686ZM289 629T259 618T214 581T193 507Q190 485 190 468Q190 438 202 422T241 400T320 393Q378 393 408 403T451 438T472 513Q476 543 476 554Q476 596
449 612T348 629Q289 629 259 618ZM242 322T210 312T161 274T136 187Q133 166 133 148Q133 116 146 99T189 73T273 65Q333 65 367 77T417 116T439 194Q443 219 443 244Q443 276 431 293T389 316T306 323Q242 322 210 312Z" />
<glyph unicode="9" glyph-name="nine" horiz-adv-x="569" d="M437 702T482 658T527 506Q527 442 512 350Q489 199 453 122T358 17T202 -12Q117 -12 47 4L60 68Q114 63 197 63Q272 65 313 87T379 164T422 324Q380 278 338 259T240 240Q153 240 115 284T76 409Q76
440 80 468Q95 593 155 647T333 702Q437 702 482 658ZM307 310T345 329T435 401Q445 474 445 511Q445 575 419 601T327 627Q271 627 238 610T187 557T162 461Q158 436 158 409Q158 357 181 334T258 310Q307 310 345 329Z" />
<glyph unicode=":" glyph-name="colon" horiz-adv-x="235" d="M168 440T174 432T179 407L172 352Q168 322 138 322H110Q76 322 80 355L88 411Q90 426 98 433T122 440H150Q168 440 174 432ZM123 118T129 110T134 85L127 30Q123 0 93 0H65Q31 0 35 33L43 89Q45 104
53 111T77 118H105Q123 118 129 110Z" />
<glyph unicode=";" glyph-name="semicolon" horiz-adv-x="239" d="M169 440T175 432T180 407L173 352Q169 322 139 322H111Q77 322 81 355L89 411Q91 426 99 433T123 440H151Q169 440 175 432ZM126 118T132 113T139 96Q139 89 138 85L129 21Q125 -15 110 -55T73
-133L31 -118Q41 -89 49 -60T64 2Q50 1 43 8T38 29L46 88Q50 106 57 112T85 118H111Q126 118 132 113Z" />
<glyph unicode="&lt;" glyph-name="less" horiz-adv-x="526" d="M477 433L125 296L438 158L429 92L47 264L56 332L487 504L477 433Z" />
<glyph unicode="=" glyph-name="equal" horiz-adv-x="586" d="M522 367H84L93 430H531L522 367ZM493 155H55L64 219H502L493 155Z" />
<glyph unicode="&gt;" glyph-name="greater" horiz-adv-x="526" d="M481 332L471 264L41 93L50 165L402 302L89 440L99 506L481 332Z" />
<glyph unicode="?" glyph-name="question" horiz-adv-x="499" d="M398 712T446 680T495 581Q495 539 481 506T444 449T385 394Q350 362 328 339T288 283T262 209L190 210Q196 258 214 296T256 360T317 422Q358 462 377 487T402 546Q404 562 404 569Q404 609 378
624T290 640Q228 640 194 638T129 634T89 630L88 691Q97 693 113 695Q164 704 202 708T308 712Q398 712 446 680ZM240 118T247 110T252 85L244 30Q241 0 211 0H188Q153 0 158 33L166 88Q171 118 200 118H222Q240 118 247 110Z" />
<glyph unicode="@" glyph-name="at" horiz-adv-x="772" d="M551 642T606 628T687 575T712 458Q712 400 700 314Q684 184 661 116T598 20T490 -8Q381 -8 379 94Q336 44 289 16T181 -12Q113 -12 81 25T48 138Q48 178 57 229Q73 323 102 370T176 434T295 451Q344
451 394 446T510 428L462 114Q461 109 461 100Q461 81 469 73T497 64Q536 64 558 87T593 163T621 321Q634 415 634 458Q634 512 616 535T558 565T428 571H111L118 634Q286 642 447 642Q551 642 606 628ZM247 60T290 87T387 174L419 379Q349 382 324 382Q253 382
219 371T169 327T139 222Q130 170 130 137Q130 95 146 78T199 60Q247 60 290 87Z" />
<glyph unicode="A" glyph-name="A" horiz-adv-x="619" d="M445 215H161L63 0H-30L286 667Q293 690 320 690H412Q424 690 432 683T442 664L571 0H483L445 215ZM432 292L384 564L376 623H346L320 564L196 292H432Z" />
<glyph unicode="B" glyph-name="B" horiz-adv-x="618" d="M560 440T528 403T433 359L432 355Q493 350 520 316T548 222Q548 194 544 169Q533 97 507 60T434 7T305 -8Q208 -8 155 -7T45 0L142 690Q192 695 238 696T363 698Q475 698 525 668T575 561Q575 549 571
515Q560 440 528 403ZM385 392T415 402T462 438T486 511Q489 531 489 546Q489 578 476 594T436 617T359 623H219L186 391H333Q385 392 415 402ZM462 222T462 233Q462 284 433 303T329 324H177L141 68Q181 67 292 67Q351 67 384 77T434 114T458 190Q462 222 462
233Z" />
<glyph unicode="C" glyph-name="C" horiz-adv-x="566" d="M448 702T488 698T571 681L557 615Q508 620 473 622T382 624Q312 624 270 600T201 515T160 342Q150 275 150 222Q150 137 183 102T294 66Q401 66 491 77L496 10Q451 -2 405 -7T293 -12Q171 -12 115 45T58
228Q58 273 68 348Q87 481 123 557T221 668T383 702Q448 702 488 698Z" />
<glyph unicode="D" glyph-name="D" horiz-adv-x="662" d="M457 699T511 677T592 603T618 467Q618 409 608 342Q587 194 549 119T448 18T274 -9Q176 -9 45 0L142 690Q264 699 368 699Q457 699 511 677ZM528 427T528 474Q528 533 512 565T461 610T366 623L220 621L143
70Q233 68 273 68Q355 68 401 90T473 171T517 348Q528 427 528 474Z" />
<glyph unicode="E" glyph-name="E" d="M241 616T225 600T204 548L183 398H480L471 330H174L148 139Q146 125 146 121Q146 96 160 85T203 74H473L471 5Q383 -1 192 -1Q125 -1 91 28T56 111Q56 119 58 137L119 573Q127 629 164 660T264 691Q470 691 562 685L550
616H275Q241 616 225 600Z" />
<glyph unicode="F" glyph-name="F" horiz-adv-x="537" d="M248 616T231 602T208 548L185 387H474L464 320L176 319L131 0H43L122 569Q131 628 168 659T268 691Q342 691 419 690T556 684L544 616H287Q248 616 231 602Z" />
<glyph unicode="G" glyph-name="G" horiz-adv-x="624" d="M322 624T276 602T202 519T160 342Q152 270 152 225Q152 139 179 102T267 65Q318 65 359 89T456 168L488 400H573L516 0H453L455 95Q409 42 357 15T238 -13Q147 -13 104 46T61 232Q61 288 68 348Q86 489
127 566T232 673T395 703Q509 703 593 681L580 616Q496 624 406 624Q322 624 276 602Z" />
<glyph unicode="H" glyph-name="H" horiz-adv-x="666" d="M636 690L539 0H452L498 330H180L134 0H45L142 690H231L191 406H509L549 690H636Z" />
<glyph unicode="I" glyph-name="I" horiz-adv-x="261" d="M134 0H45L142 690H231L134 0Z" />
<glyph unicode="J" glyph-name="J" horiz-adv-x="339" d="M234 143Q224 68 186 30T84 -9Q63 -9 35 -5T-9 4L8 66H55Q94 66 118 86T147 143L223 690H312L234 143Z" />
<glyph unicode="K" glyph-name="K" horiz-adv-x="593" d="M348 336T364 306L534 0H434L257 324H172Q172 289 167 249L133 0H45L142 690H230L199 473Q193 430 183 395H264L511 690H618L378 404Q351 373 331 360V356Q348 336 364 306Z" />
<glyph unicode="L" glyph-name="L" horiz-adv-x="509" d="M151 139Q150 133 150 123Q150 74 206 74H456L454 5Q367 -1 187 -1Q129 -1 96 28T62 113Q62 132 64 142L139 690H228L151 139Z" />
<glyph unicode="M" glyph-name="M" horiz-adv-x="876" d="M809 690T818 680T825 651L762 0H674L738 617H718L493 107Q487 92 478 85T452 78H373Q342 78 336 110L249 617H229L119 0H32L151 655Q157 690 190 690H287Q315 690 320 658L394 238Q398 214 404 168L407
144H426Q439 177 465 237L652 661Q659 676 668 682T693 689L791 690Q809 690 818 680Z" />
<glyph unicode="N" glyph-name="N" horiz-adv-x="703" d="M580 33Q578 16 570 8T545 0H465Q451 0 443 7T429 30L256 519Q236 573 229 608H212Q211 567 204 517L133 0H45L137 657Q140 674 149 682T174 690H252Q266 690 274 683T288 660L456 184Q479 118 488 84H507Q510
139 517 185L586 690H673L580 33Z" />
<glyph unicode="O" glyph-name="O" horiz-adv-x="666" d="M508 703T565 648T622 463Q622 417 612 342Q594 207 558 130T459 20T297 -13Q175 -13 117 43T59 229Q59 282 68 348Q86 481 122 557T221 668T387 703Q508 703 565 648ZM311 624T268 599T200 513T160 342Q150
265 150 224Q150 137 184 102T299 66Q369 66 411 92T479 178T521 348Q532 423 532 470Q532 556 498 590T382 624Q311 624 268 599Z" />
<glyph unicode="P" glyph-name="P" horiz-adv-x="588" d="M481 699T528 663T576 541Q576 517 571 480Q559 392 532 347T458 284T327 267Q249 267 172 276L133 0H45L142 690Q196 696 243 697T376 699Q481 699 528 663ZM488 511T488 534Q488 586 462 604T373 623Q260
623 220 622L181 343H324Q380 343 411 355T458 398T484 487Q488 511 488 534Z" />
<glyph unicode="Q" glyph-name="Q" horiz-adv-x="666" d="M508 703T565 648T622 463Q622 417 612 342Q594 207 558 130T459 20T297 -13Q175 -13 117 43T59 229Q59 282 68 348Q86 481 122 557T221 668T387 703Q508 703 565 648ZM311 624T268 599T200 513T160 342Q150
265 150 224Q150 137 184 102T299 66Q369 66 411 92T479 178T521 348Q532 423 532 470Q532 556 498 590T382 624Q311 624 268 599ZM351 -98T499 -121L464 -209Q321 -176 208 -96L242 -44Q351 -98 499 -121Z" />
<glyph unicode="R" glyph-name="R" horiz-adv-x="618" d="M564 415T528 373T422 322L421 317Q478 301 494 216L538 0H448L407 218Q400 256 382 272T329 288L251 289Q194 289 172 290L131 0H45L142 690Q196 696 245 697T376 699Q477 699 528 664T579 543Q579 522
576 496Q564 415 528 373ZM382 365T413 377T461 418T487 499Q490 522 490 540Q490 587 464 605T374 623L218 622L182 364H330Q382 365 413 377Z" />
<glyph unicode="S" glyph-name="S" horiz-adv-x="560" d="M455 700T535 682L526 618Q399 623 306 623Q263 623 238 617T197 588T175 520Q173 508 173 489Q173 457 188 442T244 411L379 361Q443 337 470 303T497 215Q497 201 493 167Q483 93 454 55T374 2T236 -12Q129
-12 26 7L37 72Q95 70 112 70Q184 67 215 67Q288 67 324 73T379 103T405 176Q407 188 407 207Q407 240 392 255T336 286L199 337Q138 360 111 396T84 488Q84 507 87 529Q97 604 127 641T205 690T331 702Q455 700 535 682Z" />
<glyph unicode="T" glyph-name="T" horiz-adv-x="573" d="M598 612H375L289 0H201L287 612H65L76 690H608L598 612Z" />
<glyph unicode="U" glyph-name="U" horiz-adv-x="664" d="M579 263Q564 162 532 102T443 14T298 -13Q182 -13 127 34T72 188Q72 224 78 267L136 690H225L165 263Q159 223 159 191Q159 122 190 94T296 66Q358 66 397 85T458 148T492 267L550 690H639L579 263Z" />
<glyph unicode="V" glyph-name="V" horiz-adv-x="605" d="M340 23Q331 0 306 0H218Q206 0 198 8T188 27L69 690H158L245 142Q253 93 255 66H281Q298 113 312 145L552 690H645L340 23Z" />
<glyph unicode="W" glyph-name="W" horiz-adv-x="943" d="M734 24Q727 0 698 0H600Q587 0 578 8T568 29L532 548Q530 566 530 575Q528 592 526 624H505L493 589L478 544L299 25Q295 13 286 7T263 0H166Q153 0 144 8T133 28L83 690H173L205 151Q207 115 207 93L208
65H232L261 154L438 662Q446 690 474 690H569Q581 690 589 681T599 659L640 150Q644 94 644 65H669Q677 92 696 152L877 690H969L734 24Z" />
<glyph unicode="X" glyph-name="X" horiz-adv-x="609" d="M400 357L545 0H455L328 324H300L84 0H-18L228 357L94 690H184L300 392H328L533 690H630L400 357Z" />
<glyph unicode="Y" glyph-name="Y" horiz-adv-x="565" d="M316 241L283 0H194L229 244L64 690H154L258 397Q273 352 278 319H286Q301 359 327 400L513 690H609L316 241Z" />
<glyph unicode="Z" glyph-name="Z" horiz-adv-x="562" d="M556 615L113 75H487L476 0H6L16 75L458 615H97L108 690H567L556 615Z" />
<glyph unicode="[" glyph-name="bracketleft" horiz-adv-x="325" d="M344 712H246Q239 712 233 707T226 694L115 -95V-98Q115 -109 125 -109H229L221 -165H81Q59 -165 46 -154T32 -121Q32 -114 33 -110L149 716Q152 740 168 754T208 768H352L344 712Z" />
<glyph unicode="\" glyph-name="backslash" horiz-adv-x="508" d="M435 -66H368L79 690H146L435 -66Z" />
<glyph unicode="]" glyph-name="bracketright" horiz-adv-x="325" d="M267 768T281 755T295 722L294 713L178 -113Q175 -136 159 -150T119 -165H-25L-18 -109H80Q87 -109 93 -104T101 -91L212 698V701Q212 712 201 712H98L106 768H245Q267 768 281 755Z" />
<glyph unicode="^" glyph-name="asciicircum" horiz-adv-x="426" d="M417 389L380 368L263 542H255L84 368L50 390L232 601H294L417 389Z" />
<glyph unicode="_" glyph-name="underscore" horiz-adv-x="438" d="M394 -65H-44L-34 0H404L394 -65Z" />
<glyph unicode="`" glyph-name="grave" horiz-adv-x="314" d="M295 576L264 538L79 663L125 723L295 576Z" />
<glyph unicode="a" glyph-name="a" horiz-adv-x="573" d="M345 499T407 493T523 476L456 0H389L395 98Q352 48 296 18T178 -12Q108 -12 75 24T42 144Q42 189 51 249Q66 356 96 409T171 481T294 499Q345 499 407 493ZM242 62T290 89T394 171L430 425Q358 428 320
428Q250 428 216 415T166 364T136 242Q127 179 127 142Q127 96 142 79T195 62Q242 62 290 89Z" />
<glyph unicode="b" glyph-name="b" horiz-adv-x="573" d="M451 499T483 464T516 341Q516 302 508 238Q493 131 463 77T390 5T275 -13Q220 -13 155 -3T37 23L132 700H216L189 498Q178 428 163 379Q212 430 270 464T380 499Q451 499 483 464ZM430 306T430 343Q430
391 414 408T360 425Q325 425 274 397T162 315L127 63Q191 58 244 58Q312 58 344 71T393 122T421 244Q430 306 430 343Z" />
<glyph unicode="c" glyph-name="c" horiz-adv-x="484" d="M348 499T390 493T464 475L450 422Q396 427 322 427Q259 427 223 412T165 356T135 240Q130 195 130 171Q130 126 143 102T184 69T261 60Q345 60 407 70L413 12Q337 -12 246 -12Q138 -12 89 30T40 168Q40
204 46 247Q60 341 89 395T171 474T308 499Q348 499 390 493Z" />
<glyph unicode="d" glyph-name="d" horiz-adv-x="572" d="M553 700L455 0H388L395 106Q348 55 290 22T168 -12Q105 -12 74 26T42 151Q42 190 50 249Q66 355 95 409T169 481T285 499Q354 499 443 487Q445 536 451 580L468 700H553ZM239 62T286 89T395 175L429 427L317
429Q248 429 215 416T165 365T136 242Q127 181 127 143Q127 98 141 80T192 62Q239 62 286 89Z" />
<glyph unicode="e" glyph-name="e" horiz-adv-x="537" d="M411 499T454 470T498 381Q498 363 495 343Q483 274 441 244T310 207L130 190Q129 138 143 110T185 71T260 60Q346 60 439 72L445 15Q410 1 354 -5T246 -12Q139 -12 91 34T42 179Q42 213 48 255Q62 352
91 404T173 477T314 499Q411 499 454 470ZM413 368T413 373Q413 398 401 410T367 425T303 428Q247 428 216 415T166 365T136 254L309 271Q359 275 381 291T411 350Q413 368 413 373Z" />
<glyph unicode="f" glyph-name="f" horiz-adv-x="377" d="M290 647T268 630T238 563L227 487H383L373 420H218L150 -60Q131 -201 -4 -201Q-56 -201 -120 -194L-107 -130H-31Q17 -130 38 -113T67 -47L132 420H45L53 482L142 487L154 576Q174 717 312 717Q397 717
450 710L437 647H339Q290 647 268 630Z" />
<glyph unicode="g" glyph-name="g" horiz-adv-x="575" d="M526 476L458 9Q432 -211 167 -211Q132 -211 89 -208T15 -195L24 -138Q76 -140 109 -140Q153 -140 182 -139Q348 -134 372 -8Q374 0 380 28T393 79T412 118Q368 60 306 24T176 -12Q110 -12 77 24T43 148Q43
191 52 249Q67 356 97 409T171 481T286 499Q341 499 405 493T524 476H526ZM243 62T290 89T395 172L433 425Q360 428 318 428Q250 428 217 415T167 364T138 242Q128 172 128 141Q128 96 144 79T196 62Q243 62 290 89Z" />
<glyph unicode="h" glyph-name="h" horiz-adv-x="578" d="M455 499T486 471T517 391Q517 382 515 364L463 0H378L427 343Q429 365 429 372Q429 402 416 414T374 427Q331 427 285 401T164 316L120 0H35L134 700H219L192 504Q184 441 169 384Q237 442 292 470T400
499Q455 499 486 471Z" />
<glyph unicode="i" glyph-name="i" horiz-adv-x="246" d="M210 694T216 686T221 666L214 609Q212 596 206 591T186 585H147Q133 585 127 592T122 613L130 669Q133 694 157 694H197Q210 694 216 686ZM124 0H40L108 487H192L124 0Z" />
<glyph unicode="j" glyph-name="j" horiz-adv-x="246" d="M210 694T216 686T221 666L214 609Q212 596 206 591T186 585H147Q133 585 127 592T122 613L130 669Q133 694 157 694H197Q210 694 216 686ZM122 -14Q115 -72 84 -121T5 -204L-41 -165Q-6 -129 12 -93T38
-10L108 487H192L122 -14Z" />
<glyph unicode="k" glyph-name="k" horiz-adv-x="521" d="M343 252T361 214L457 0H366L267 230Q224 208 146 174L120 0H36L134 700H219L174 362Q165 303 144 246Q244 290 315 351T410 487H497Q454 355 332 270Q343 252 361 214Z" />
<glyph unicode="l" glyph-name="l" horiz-adv-x="293" d="M140 132Q138 118 138 113Q138 89 151 79T195 69H244L247 3Q234 -2 207 -5T159 -9Q108 -9 80 18T51 93Q51 101 53 117L135 700H220L140 132Z" />
<glyph unicode="m" glyph-name="m" horiz-adv-x="872" d="M751 499T781 471T811 392Q811 384 809 364L758 0H674L722 343Q724 361 724 367Q724 400 709 413T663 427Q627 427 589 404T482 316L438 0H356L404 343Q406 363 406 370Q406 400 392 413T345 427Q308 427
271 404T164 318L120 0H35L104 487H169L163 381Q224 442 275 470T376 499Q433 499 463 470T491 387Q549 445 598 472T695 499Q751 499 781 471Z" />
<glyph unicode="n" glyph-name="n" horiz-adv-x="578" d="M455 499T486 471T517 391Q517 382 515 364L463 0H378L427 343Q429 365 429 372Q429 402 416 414T374 427Q331 427 285 402T164 318L120 0H35L104 487H172L165 380Q234 440 290 469T400 499Q455 499 486 471Z" />
<glyph unicode="o" glyph-name="o" horiz-adv-x="564" d="M413 499T461 457T510 318Q510 283 504 239Q491 146 461 92T379 12T245 -13Q139 -13 90 30T40 172Q40 206 46 246Q59 339 88 394T170 474T307 499Q413 499 461 457ZM252 427T219 411T166 354T135 239Q129
197 129 166Q129 106 155 83T245 59Q301 59 334 76T387 133T417 246Q423 290 423 320Q423 380 397 403T307 427Q252 427 219 411Z" />
<glyph unicode="p" glyph-name="p" horiz-adv-x="575" d="M454 499T486 465T518 345Q518 300 509 238Q494 132 465 78T390 5T271 -13Q206 -13 117 -1Q115 -58 109 -93L92 -203H6L105 487H172L165 379Q212 429 273 464T384 499Q454 499 486 465ZM432 307T432 345Q432
391 417 408T365 425Q330 425 275 396T166 314L131 60Q203 57 240 57Q311 57 344 70T394 121T423 244Q432 307 432 345Z" />
<glyph unicode="q" glyph-name="q" horiz-adv-x="570" d="M337 499T402 490T520 465L425 -203H340L368 -12Q378 58 398 109Q289 -12 172 -12Q108 -12 76 25T43 153Q43 197 50 249Q65 355 94 409T167 481T278 499Q337 499 402 490ZM244 62T286 87T394 173L429 424Q366
429 311 429Q245 429 213 416T164 364T136 242Q128 178 128 145Q128 98 143 80T196 62Q244 62 286 87Z" />
<glyph unicode="r" glyph-name="r" horiz-adv-x="398" d="M411 499L390 419H365Q325 419 283 396T164 315L120 0H35L104 487H169L162 374Q289 499 386 499H411Z" />
<glyph unicode="s" glyph-name="s" horiz-adv-x="506" d="M302 499T363 495T469 484L458 423Q335 427 266 428Q217 428 194 426T159 413T143 378Q142 374 142 366Q142 345 155 334T202 307L338 247Q391 224 414 200T437 134Q437 127 435 109Q428 56 401 31T329
-3T207 -11Q158 -11 132 -9T64 -2Q56 -1 21 3L31 65Q91 60 187 60Q251 61 284 65T332 82T352 117Q353 121 353 128Q353 148 342 157T313 174T289 185L153 245Q105 267 82 293T59 362Q59 376 60 384Q69 449 113 474T249 499Q302 499 363 495Z" />
<glyph unicode="t" glyph-name="t" horiz-adv-x="377" d="M175 132Q173 118 173 112Q173 88 186 79T229 69H305L308 4Q286 -2 253 -5T199 -9Q144 -9 116 18T87 95Q87 104 89 124L131 420H42L50 482L141 487L161 631H245L225 487H380L370 420H215L175 132Z" />
<glyph unicode="u" glyph-name="u" horiz-adv-x="567" d="M518 487L450 0H384L391 105Q329 45 275 16T166 -13Q108 -13 78 15T48 93Q48 113 50 123L101 487H186L137 144Q135 134 135 117Q135 87 149 74T195 61Q238 61 280 86T391 174L433 487H518Z" />
<glyph unicode="v" glyph-name="v" horiz-adv-x="531" d="M502 415T477 341T424 204Q403 157 380 116T339 51Q319 24 299 12T243 0H168Q158 0 150 6T140 23L45 487H134L208 67H224Q243 67 254 73T279 96Q313 142 354 239Q383 302 399 358T429 487H517Q502 415 477 341Z" />
<glyph unicode="w" glyph-name="w" horiz-adv-x="850" d="M202 67H215Q229 67 240 74T262 102Q292 155 317 239Q333 288 344 336T369 466Q370 476 377 481T393 487H486Q495 487 501 481T508 467L557 67H569Q591 67 610 98Q633 135 648 163T681 239Q722 343 746
487H835Q798 322 746 204Q725 155 701 113T660 48Q640 23 621 12T574 0H518Q507 0 500 6T491 23L445 431H432Q427 387 415 328T386 218Q372 174 354 132T319 63Q299 28 273 14T212 0H162Q152 0 145 6T135 23L45 487H133L202 67Z" />
<glyph unicode="x" glyph-name="x" horiz-adv-x="526" d="M336 251L463 0H377L269 220H246L76 0H-19L180 252L63 487H148L245 286H272L428 487H520L336 251Z" />
<glyph unicode="y" glyph-name="y" horiz-adv-x="539" d="M523 487Q497 372 463 275T375 81Q323 -17 273 -75T170 -164T51 -206L35 -145Q96 -131 144 -98T239 0H195Q173 0 158 12T138 45L44 487H133L210 86Q215 67 233 67H281L301 106Q350 202 381 289T435 487H523Z" />
<glyph unicode="z" glyph-name="z" horiz-adv-x="504" d="M472 417L114 69H426L416 0H6L16 69H15L373 417H69L78 487H481L471 417H472Z" />
<glyph unicode="{" glyph-name="braceleft" horiz-adv-x="318" d="M337 714Q286 714 262 694T232 627L207 448Q201 405 191 382T161 347T102 327Q145 313 162 294T180 240Q180 226 177 208L144 -28Q142 -48 142 -55Q142 -86 159 -98T220 -111L217 -165Q208 -166
191 -166Q126 -166 94 -139T61 -60Q61 -41 63 -31L99 225Q101 241 101 245Q101 261 95 269T80 283T45 298L53 360Q84 369 95 374T114 394T125 439L153 637Q162 704 198 736T309 769Q329 769 340 768L337 714Z" />
<glyph unicode="|" glyph-name="bar" horiz-adv-x="245" d="M89 -169H26L159 781H222L89 -169Z" />
<glyph unicode="}" glyph-name="braceright" horiz-adv-x="319" d="M117 769T134 769Q200 769 231 741T263 661Q263 652 261 634L233 435Q230 416 230 403Q230 388 235 381T248 370T283 358L275 296Q245 285 233 279T212 260T199 221L164 -34Q155 -101 119 -133T6
-166Q-13 -166 -24 -165L-21 -111Q30 -111 53 -91T83 -25L117 212Q123 248 133 269T164 303T226 329Q185 337 168 355T151 411Q151 428 154 452L180 631Q182 651 182 657Q182 688 165 701T103 714L107 768Q117 769 134 769Z" />
<glyph unicode="~" glyph-name="asciitilde" horiz-adv-x="522" d="M181 347T204 340T266 316Q301 302 322 295T363 288Q384 288 395 301T411 344L454 341Q453 285 430 255T371 225Q339 225 311 233T243 259Q216 272 196 278T158 285Q136 285 125 271T110 226L66
230Q67 289 92 319T155 348Q181 347 204 340Z" />
<glyph unicode="&#xa0;" glyph-name="uni00A0" horiz-adv-x="223" />
<glyph unicode="&#xa1;" glyph-name="exclamdown" horiz-adv-x="255" d="M195 493T195 470Q195 464 194 460L187 405Q183 375 153 375H131Q101 375 101 399Q101 405 102 408L109 463Q113 493 143 493H166Q195 493 195 470ZM143 104L101 -196H17L59 104L93 282H160L143
104Z" />
<glyph unicode="&#xa2;" glyph-name="cent" horiz-adv-x="505" d="M418 530T358 532L276 164Q353 164 422 175L428 116Q391 104 347 98T260 92H258L237 0H195L217 94Q132 102 93 143T54 270Q54 299 61 351Q75 445 104 499T186 578T323 603H333L354 690H396L375
601Q443 593 478 579L465 526Q418 530 358 532ZM145 311T145 275Q145 219 166 195T235 166L315 532Q261 529 229 513T178 457T150 345Q145 311 145 275Z" />
<glyph unicode="&#xa3;" glyph-name="sterling" horiz-adv-x="568" d="M304 626T276 603T243 518L233 390H446L436 338H229L223 262Q217 192 195 148T124 71Q145 75 189 75H488L478 0H19L29 76Q82 101 106 148T137 264L143 338H64L71 390H147L158 523Q165 598
191 637T259 689T369 702Q449 702 549 692L539 622L513 623Q456 626 366 626Q304 626 276 603Z" />
<glyph unicode="&#xa4;" glyph-name="currency" horiz-adv-x="596" d="M493 276T450 227L519 150L480 114L411 192Q358 156 285 156Q212 156 165 195L88 126L52 167L130 237Q108 276 108 327Q108 416 162 480L95 557L135 594L203 515Q256 549 326 549Q398 549
445 511L523 581L558 539L480 471Q504 432 504 379Q504 369 502 349Q493 276 450 227ZM353 205T397 246T450 356Q451 363 451 376Q451 433 418 466T324 500Q256 500 213 459T161 349Q160 342 160 329Q160 272 194 239T286 205Q353 205 397 246Z" />
<glyph unicode="&#xa5;" glyph-name="yen" horiz-adv-x="615" d="M392 323H530L523 271H357L342 248L337 210H515L507 159H329L307 0H219L241 159H68L74 210H249L255 253L248 271H84L90 323H228L89 690H178L283 405Q298 360 303 327H312Q325 364 354 408L538 690H634L392
323Z" />
<glyph unicode="&#xa6;" glyph-name="brokenbar" horiz-adv-x="245" d="M166 381H103L160 781H222L166 381ZM89 -169H26L82 231H145L89 -169Z" />
<glyph unicode="&#xa7;" glyph-name="section" horiz-adv-x="544" d="M441 701T531 691L520 625Q441 630 315 630Q252 630 225 619T191 569Q190 563 190 553Q190 528 203 511T241 479L393 386Q434 361 452 331T471 262Q471 221 448 152H386Q396 200 396 227Q396
259 384 282T342 323L183 422Q141 448 121 476T100 548Q100 567 102 578Q109 629 134 656T201 693T311 703Q441 701 531 691ZM153 386Q142 339 142 311Q142 281 154 260T196 221L356 122Q397 96 418 68T439 -6Q439 -15 437 -35Q429 -90 402 -117T334 -153T226 -162Q103
-160 8 -150L19 -83Q112 -89 206 -90Q256 -90 285 -86T331 -64T348 -10Q348 16 336 32T298 64L148 155Q106 179 87 209T68 278Q68 323 91 386H153Z" />
<glyph unicode="&#xa8;" glyph-name="dieresis" horiz-adv-x="411" d="M213 694T217 688T220 670L212 615Q209 591 185 591H157Q133 591 136 614L144 670Q149 694 172 694H198Q213 694 217 688ZM382 694T386 688T389 670L381 615Q378 591 354 591H326Q302 591
305 614L313 670Q318 694 341 694H367Q382 694 386 688Z" />
<glyph unicode="&#xa9;" glyph-name="copyright" horiz-adv-x="834" d="M559 703T632 665T746 557T787 396Q787 380 783 342Q770 240 717 160T577 33T383 -13Q286 -13 214 26T102 135T62 294Q62 312 66 348Q79 449 131 529T270 656T464 703Q559 703 632 665ZM372
659T296 618T171 505T112 342Q109 318 109 295Q109 215 143 156T239 64T382 31Q476 31 552 71T677 184T737 348Q740 372 740 395Q740 473 707 532T612 625T467 659Q372 659 296 618ZM529 568T591 554L581 506Q525 510 471 510Q412 510 380 498T329 450T301 344Q296
304 296 282Q296 228 320 207T401 185Q494 185 544 191L548 142Q484 127 411 127Q312 127 271 161T230 278Q230 317 235 351Q247 434 272 481T343 548T465 568Q529 568 591 554Z" />
<glyph unicode="&#xaa;" glyph-name="ordfeminine" horiz-adv-x="446" d="M284 607T330 602T412 590L368 271H315L317 328Q290 299 254 282T176 264Q125 264 100 290T75 380Q75 410 79 439Q89 512 111 548T166 596T247 607Q284 607 330 602ZM242 322T320 389L343
552Q309 553 269 553Q222 553 200 546T165 514T145 435Q140 395 140 376Q140 343 151 333T189 322Q242 322 320 389Z" />
<glyph unicode="&#xab;" glyph-name="guillemotleft" horiz-adv-x="477" d="M441 427L288 250L397 68L354 39L218 246L219 265L406 459L441 427ZM260 427L107 250L216 68L173 39L37 246L38 265L225 459L260 427Z" />
<glyph unicode="&#xac;" glyph-name="logicalnot" horiz-adv-x="587" d="M515 330L487 133H422L441 265H68L77 330H515Z" />
<glyph unicode="&#xad;" glyph-name="uni00AD" horiz-adv-x="447" d="M621 220H316L325 285H629L621 220Z" />
<glyph unicode="&#xae;" glyph-name="registered" horiz-adv-x="554" d="M413 702T470 651T527 506Q527 496 525 476Q514 375 450 316T286 257Q191 257 135 311T79 454Q79 463 81 485Q92 585 158 643T323 702Q413 702 470 651ZM496 588T450 631T322 674Q256 674
208 646T135 567T110 453Q110 373 158 329T286 284Q350 284 397 312T470 392T496 509Q496 588 450 631ZM374 613T398 601T423 551Q423 514 409 496T361 471V469Q371 464 376 456T386 431L407 352H365L346 432Q342 448 334 453T311 458Q254 458 239 459L224 352H184L221
610Q257 613 328 613Q374 613 398 601ZM383 542T383 550Q383 569 371 575T327 582Q275 582 256 581L243 488H309Q347 489 362 498T382 538Q383 542 383 550Z" />
<glyph unicode="&#xaf;" glyph-name="overscore" horiz-adv-x="400" d="M391 609H112L120 672H399L391 609Z" />
<glyph unicode="&#xb0;" glyph-name="degree" horiz-adv-x="363" d="M285 703T318 670T351 586Q351 525 311 487T211 448Q155 448 123 482T91 565Q91 625 130 664T230 703Q285 703 318 670ZM191 652T168 629T145 568Q145 537 164 518T214 499Q250 499 273 522T296
584Q296 614 278 633T227 652Q191 652 168 629Z" />
<glyph unicode="&#xb1;" glyph-name="plusminus" horiz-adv-x="585" d="M525 391L516 327H330L311 193H246L265 327H78L87 391H274L292 524H358L339 391H525ZM51 133H489L480 70H42L51 133Z" />
<glyph unicode="&#xb2;" glyph-name="uni00B2" horiz-adv-x="414" d="M344 773T376 757T409 697Q409 654 382 616T306 535L170 416Q193 418 234 418L388 417L378 359H73L78 395Q81 412 93 423L236 547Q281 586 307 618T333 681Q333 702 316 709T264 716Q203 716
132 707L135 758Q207 773 275 773Q344 773 376 757Z" />
<glyph unicode="&#xb3;" glyph-name="uni00B3" horiz-adv-x="407" d="M337 774T368 758T400 702Q400 652 378 617T312 576V574Q348 568 364 550T381 499Q381 421 341 386T220 351Q147 351 73 363L85 413Q152 407 211 407Q263 407 288 428T313 497Q313 520 297
532T239 546H154L161 596L246 597Q331 597 331 678Q331 702 314 710T252 718Q179 718 134 712L136 761Q211 774 267 774Q337 774 368 758Z" />
<glyph unicode="&#xb4;" glyph-name="acute" horiz-adv-x="314" d="M334 658L127 538L101 577L293 724L334 658Z" />
<glyph unicode="&#xb5;" glyph-name="uni00B5" horiz-adv-x="582" d="M532 55L531 4Q484 -10 450 -10Q415 -10 398 5T381 56Q381 69 382 77L386 104Q355 52 303 20T192 -13Q155 -13 128 2L117 -76L88 -197H16L69 181L112 487H197L148 144Q147 137 147 125Q147
95 163 82T212 68Q247 68 286 88T358 153T406 268L437 487H522L469 108Q467 88 467 83Q467 69 472 62T491 55H532Z" />
<glyph unicode="&#xb6;" glyph-name="paragraph" horiz-adv-x="590" d="M431 702T474 698T550 685L454 0H388L479 642Q432 646 382 646L261 -210H196L254 201Q151 212 103 259T55 397Q55 421 60 458Q73 551 110 604T215 679T393 702Q431 702 474 698Z" />
<glyph unicode="&#xb7;" glyph-name="middot" horiz-adv-x="233" d="M150 317T156 309T161 284L154 229Q150 199 120 199H92Q58 199 62 232L70 288Q72 303 80 310T104 317H132Q150 317 156 309Z" />
<glyph unicode="&#xb8;" glyph-name="cedilla" horiz-adv-x="234" d="M71 -41T81 -41Q117 -41 135 -53T153 -93Q153 -98 151 -112Q142 -167 101 -199T-1 -231Q-11 -231 -31 -229L-15 -184Q25 -185 55 -165T90 -111Q91 -108 91 -103Q91 -92 80 -88T37 -83L47 -43Q71
-41 81 -41Z" />
<glyph unicode="&#xb9;" glyph-name="uni00B9" horiz-adv-x="295" d="M226 359H160L204 669Q208 695 212 707L100 678L98 725L217 767H284L226 359Z" />
<glyph unicode="&#xba;" glyph-name="ordmasculine" horiz-adv-x="441" d="M335 607T370 579T405 486Q405 459 401 432Q392 369 372 333T315 280T220 264Q143 264 108 293T73 389Q73 415 77 439Q86 502 106 538T162 591T258 607Q335 607 370 579ZM218 554T196
543T162 507T143 432Q139 398 139 388Q139 348 157 333T221 318Q276 318 300 344T335 439Q339 463 339 485Q339 524 321 539T258 554Q218 554 196 543Z" />
<glyph unicode="&#xbb;" glyph-name="guillemotright" horiz-adv-x="478" d="M24 68L177 245L68 428L110 456L247 250L245 230L59 37L24 68ZM205 68L358 245L249 428L292 456L428 250L427 230L240 37L205 68Z" />
<glyph unicode="&#xbc;" glyph-name="onequarter" horiz-adv-x="858" d="M197 617T201 632L86 601L85 647L207 690H274L216 276H149L193 593Q197 617 201 632ZM698 690L154 0H91L636 690H698ZM794 103L742 98L728 0H666L679 97H486Q468 97 456 107T443 133Q443
148 453 164L615 414H681L525 170Q521 162 521 160Q521 150 536 150H686L702 267L723 335H775L749 150H801L794 103Z" />
<glyph unicode="&#xbd;" glyph-name="onehalf" horiz-adv-x="878" d="M147 0H85L629 690H691L147 0ZM215 276H148L193 593Q197 617 201 632L86 601L85 647L207 690H273L215 276ZM753 421T787 405T822 344Q822 305 799 267T720 181L571 58Q596 60 641 60L801 59L792
0H480L486 39Q488 58 498 68L644 192Q692 233 717 264T748 324Q749 327 749 333Q749 353 732 358T677 364Q608 364 541 356L539 406Q610 421 679 421Q753 421 787 405Z" />
<glyph unicode="&#xbe;" glyph-name="threequarters" horiz-adv-x="952" d="M358 322T322 294T204 266Q139 266 55 277L60 327Q119 322 186 322Q242 322 268 340T300 401Q301 406 301 417Q301 440 285 452T224 465H137L143 515H227Q276 516 295 536T318 587Q319
593 319 602Q319 624 302 632T239 640Q160 640 117 636L115 685Q182 695 246 695Q322 695 354 678T386 619Q386 612 384 596Q378 552 359 527T298 495L292 492Q332 486 349 466T367 409Q367 393 366 385Q358 322 322 294ZM801 690L257 0H194L739 690H801ZM887 103L833
98L819 0H756L769 97H579Q561 97 549 107T536 133Q536 148 546 164L708 414H774L618 170Q614 162 614 160Q614 150 629 150H777L793 267L814 335H866L840 150H894L887 103Z" />
<glyph unicode="&#xbf;" glyph-name="questiondown" horiz-adv-x="494" d="M329 499T325 466L317 411Q315 395 307 388T283 381H262Q244 381 237 389T232 414L240 470Q243 499 273 499H295Q329 499 325 466ZM286 239T267 201T226 137T166 75Q121 33 100 3T78 -69Q78
-106 105 -123T192 -140Q263 -140 302 -138T393 -131L394 -192Q385 -194 369 -196Q318 -205 280 -209T174 -213Q82 -213 35 -177T-12 -77Q-12 -62 -11 -54Q-4 -5 22 29T99 108Q152 155 181 193T221 287H292Q286 239 267 201Z" />
<glyph unicode="&#xc0;" glyph-name="Agrave" horiz-adv-x="619" d="M445 215H161L63 0H-30L286 667Q293 690 320 690H412Q424 690 432 683T442 664L571 0H483L445 215ZM432 292L384 564L376 623H346L320 564L196 292H432ZM427 766L396 728L211 853L257 913L427 766Z" />
<glyph unicode="&#xc1;" glyph-name="Aacute" horiz-adv-x="619" d="M445 215H161L63 0H-30L286 667Q293 690 320 690H412Q424 690 432 683T442 664L571 0H483L445 215ZM432 292L384 564L376 623H346L320 564L196 292H432ZM545 848L338 728L312 767L504 914L545 848Z" />
<glyph unicode="&#xc2;" glyph-name="Acircumflex" horiz-adv-x="619" d="M445 215H161L63 0H-30L286 667Q293 690 320 690H412Q424 690 432 683T442 664L571 0H483L445 215ZM432 292L384 564L376 623H346L320 564L196 292H432ZM548 763L516 730L397 831H389L240
731L215 769L364 896H424L548 763Z" />
<glyph unicode="&#xc3;" glyph-name="Atilde" horiz-adv-x="619" d="M445 215H161L63 0H-30L286 667Q293 690 320 690H412Q424 690 432 683T442 664L571 0H483L445 215ZM432 292L384 564L376 623H346L320 564L196 292H432ZM328 879T346 872T389 849Q410 836 425
830T462 823Q485 823 496 836T511 876L551 873Q550 818 525 789T462 762Q435 764 416 772T373 796Q355 808 341 814T311 820Q287 820 276 806T260 763L220 767Q222 822 245 850T303 879Q328 879 346 872Z" />
<glyph unicode="&#xc4;" glyph-name="Adieresis" horiz-adv-x="619" d="M445 215H161L63 0H-30L286 667Q293 690 320 690H412Q424 690 432 683T442 664L571 0H483L445 215ZM432 292L384 564L376 623H346L320 564L196 292H432ZM336 870T340 864T343 846L335 791Q332
767 308 767H280Q256 767 259 790L267 846Q272 870 295 870H321Q336 870 340 864ZM505 870T509 864T512 846L504 791Q501 767 477 767H449Q425 767 428 790L436 846Q441 870 464 870H490Q505 870 509 864Z" />
<glyph unicode="&#xc5;" glyph-name="Aring" horiz-adv-x="619" d="M445 215H161L63 0H-30L286 667Q293 690 320 690H412Q424 690 432 683T442 664L571 0H483L445 215ZM432 292L384 564L376 623H346L320 564L196 292H432ZM438 925T466 899T494 829Q494 780 462
748T380 715Q335 715 307 741T279 811Q279 860 311 892T393 925Q438 925 466 899ZM362 881T345 863T327 815Q327 790 341 775T382 759Q410 759 428 778T446 826Q446 851 432 866T392 881Q362 881 345 863Z" />
<glyph unicode="&#xc6;" glyph-name="AE" horiz-adv-x="912" d="M582 616T572 547L552 399L835 398L826 329H542L516 139Q515 133 515 122Q515 97 528 86T571 74H829L825 5Q735 -1 555 -1Q497 -1 464 28T431 109Q431 127 433 137L445 224H214L52 0H-42L382 583Q413
627 444 650T516 682T619 691Q810 691 916 685L904 616H649Q582 616 572 547ZM456 299L492 560Q494 581 505 601T532 630H527Q493 612 460 565L269 300L456 299Z" />
<glyph unicode="&#xc7;" glyph-name="Ccedilla" horiz-adv-x="566" d="M448 702T488 698T571 681L557 615Q508 620 473 622T382 624Q312 624 270 600T201 515T160 342Q150 275 150 222Q150 137 183 102T294 66Q401 66 491 77L496 10Q451 -2 405 -7T293 -12Q171
-12 115 45T58 228Q58 273 68 348Q87 481 123 557T221 668T383 702Q448 702 488 698ZM252 -53T262 -53Q298 -53 316 -65T334 -105Q334 -110 332 -124Q323 -179 282 -211T180 -243Q170 -243 150 -241L166 -196Q206 -197 236 -177T271 -123Q272 -120 272 -115Q272
-104 261 -100T218 -95L228 -55Q252 -53 262 -53Z" />
<glyph unicode="&#xc8;" glyph-name="Egrave" d="M241 616T225 600T204 548L183 398H480L471 330H174L148 139Q146 125 146 121Q146 96 160 85T203 74H473L471 5Q383 -1 192 -1Q125 -1 91 28T56 111Q56 119 58 137L119 573Q127 629 164 660T264 691Q470 691 562
685L550 616H275Q241 616 225 600ZM425 787L394 749L209 874L255 934L425 787Z" />
<glyph unicode="&#xc9;" glyph-name="Eacute" d="M241 616T225 600T204 548L183 398H480L471 330H174L148 139Q146 125 146 121Q146 96 160 85T203 74H473L471 5Q383 -1 192 -1Q125 -1 91 28T56 111Q56 119 58 137L119 573Q127 629 164 660T264 691Q470 691 562
685L550 616H275Q241 616 225 600ZM543 869L336 749L310 788L502 935L543 869Z" />
<glyph unicode="&#xca;" glyph-name="Ecircumflex" d="M241 616T225 600T204 548L183 398H480L471 330H174L148 139Q146 125 146 121Q146 96 160 85T203 74H473L471 5Q383 -1 192 -1Q125 -1 91 28T56 111Q56 119 58 137L119 573Q127 629 164 660T264 691Q470 691
562 685L550 616H275Q241 616 225 600ZM546 784L514 751L395 852H387L238 752L213 790L362 917H422L546 784Z" />
<glyph unicode="&#xcb;" glyph-name="Edieresis" d="M241 616T225 600T204 548L183 398H480L471 330H174L148 139Q146 125 146 121Q146 96 160 85T203 74H473L471 5Q383 -1 192 -1Q125 -1 91 28T56 111Q56 119 58 137L119 573Q127 629 164 660T264 691Q470 691
562 685L550 616H275Q241 616 225 600ZM334 890T338 884T341 866L333 811Q330 787 306 787H278Q254 787 257 810L265 866Q270 890 293 890H319Q334 890 338 884ZM503 890T507 884T510 866L502 811Q499 787 475 787H447Q423 787 426 810L434 866Q439 890 462 890H488Q503
890 507 884Z" />
<glyph unicode="&#xcc;" glyph-name="Igrave" horiz-adv-x="261" d="M134 0H45L142 690H231L134 0ZM245 766L214 728L29 853L75 913L245 766Z" />
<glyph unicode="&#xcd;" glyph-name="Iacute" horiz-adv-x="261" d="M134 0H45L142 690H231L134 0ZM364 848L157 728L131 767L323 914L364 848Z" />
<glyph unicode="&#xce;" glyph-name="Icircumflex" horiz-adv-x="261" d="M134 0H45L142 690H231L134 0ZM367 763L335 730L216 831H208L59 731L34 769L183 896H243L367 763Z" />
<glyph unicode="&#xcf;" glyph-name="Idieresis" horiz-adv-x="261" d="M134 0H45L142 690H231L134 0ZM155 870T159 864T162 846L154 791Q151 767 127 767H99Q75 767 78 790L86 846Q91 870 114 870H140Q155 870 159 864ZM324 870T328 864T331 846L323 791Q320
767 296 767H268Q244 767 247 790L255 846Q260 870 283 870H309Q324 870 328 864Z" />
<glyph unicode="&#xd0;" glyph-name="Eth" horiz-adv-x="662" d="M457 699T511 677T592 603T618 467Q618 409 608 342Q587 194 549 119T448 18T274 -9Q176 -9 45 0L93 342H27L34 391H100L142 690Q264 699 368 699Q457 699 511 677ZM528 427T528 474Q528 533 512
565T461 610T366 623L220 621L188 391H342L336 342H181L143 70Q233 68 273 68Q355 68 401 90T473 171T517 348Q528 427 528 474Z" />
<glyph unicode="&#xd1;" glyph-name="Ntilde" horiz-adv-x="703" d="M580 33Q578 16 570 8T545 0H465Q451 0 443 7T429 30L256 519Q236 573 229 608H212Q211 567 204 517L133 0H45L137 657Q140 674 149 682T174 690H252Q266 690 274 683T288 660L456 184Q479 118
488 84H507Q510 139 517 185L586 690H673L580 33ZM375 879T393 872T436 849Q457 836 472 830T509 823Q532 823 543 836T558 876L598 873Q597 818 572 789T509 762Q482 764 463 772T420 796Q402 808 388 814T358 820Q334 820 323 806T307 763L267 767Q269 822 292
850T350 879Q375 879 393 872Z" />
<glyph unicode="&#xd2;" glyph-name="Ograve" horiz-adv-x="666" d="M508 703T565 648T622 463Q622 417 612 342Q594 207 558 130T459 20T297 -13Q175 -13 117 43T59 229Q59 282 68 348Q86 481 122 557T221 668T387 703Q508 703 565 648ZM311 624T268 599T200
513T160 342Q150 265 150 224Q150 137 184 102T299 66Q369 66 411 92T479 178T521 348Q532 423 532 470Q532 556 498 590T382 624Q311 624 268 599ZM443 766L412 728L227 853L273 913L443 766Z" />
<glyph unicode="&#xd3;" glyph-name="Oacute" horiz-adv-x="666" d="M508 703T565 648T622 463Q622 417 612 342Q594 207 558 130T459 20T297 -13Q175 -13 117 43T59 229Q59 282 68 348Q86 481 122 557T221 668T387 703Q508 703 565 648ZM311 624T268 599T200
513T160 342Q150 265 150 224Q150 137 184 102T299 66Q369 66 411 92T479 178T521 348Q532 423 532 470Q532 556 498 590T382 624Q311 624 268 599ZM562 848L355 728L329 767L521 914L562 848Z" />
<glyph unicode="&#xd4;" glyph-name="Ocircumflex" horiz-adv-x="666" d="M508 703T565 648T622 463Q622 417 612 342Q594 207 558 130T459 20T297 -13Q175 -13 117 43T59 229Q59 282 68 348Q86 481 122 557T221 668T387 703Q508 703 565 648ZM311 624T268 599T200
513T160 342Q150 265 150 224Q150 137 184 102T299 66Q369 66 411 92T479 178T521 348Q532 423 532 470Q532 556 498 590T382 624Q311 624 268 599ZM565 763L533 730L414 831H406L257 731L232 769L381 896H441L565 763Z" />
<glyph unicode="&#xd5;" glyph-name="Otilde" horiz-adv-x="666" d="M508 703T565 648T622 463Q622 417 612 342Q594 207 558 130T459 20T297 -13Q175 -13 117 43T59 229Q59 282 68 348Q86 481 122 557T221 668T387 703Q508 703 565 648ZM311 624T268 599T200
513T160 342Q150 265 150 224Q150 137 184 102T299 66Q369 66 411 92T479 178T521 348Q532 423 532 470Q532 556 498 590T382 624Q311 624 268 599ZM345 879T363 872T406 849Q427 836 442 830T479 823Q502 823 513 836T528 876L568 873Q567 818 542 789T479 762Q452
764 433 772T390 796Q372 808 358 814T328 820Q304 820 293 806T277 763L237 767Q239 822 262 850T320 879Q345 879 363 872Z" />
<glyph unicode="&#xd6;" glyph-name="Odieresis" horiz-adv-x="666" d="M508 703T565 648T622 463Q622 417 612 342Q594 207 558 130T459 20T297 -13Q175 -13 117 43T59 229Q59 282 68 348Q86 481 122 557T221 668T387 703Q508 703 565 648ZM311 624T268 599T200
513T160 342Q150 265 150 224Q150 137 184 102T299 66Q369 66 411 92T479 178T521 348Q532 423 532 470Q532 556 498 590T382 624Q311 624 268 599ZM353 870T357 864T360 846L352 791Q349 767 325 767H297Q273 767 276 790L284 846Q289 870 312 870H338Q353 870
357 864ZM522 870T526 864T529 846L521 791Q518 767 494 767H466Q442 767 445 790L453 846Q458 870 481 870H507Q522 870 526 864Z" />
<glyph unicode="&#xd7;" glyph-name="multiply" horiz-adv-x="525" d="M310 284L438 151L392 104L258 243L81 102L42 157L211 291L83 424L130 471L263 333L445 477L484 422L310 284Z" />
<glyph unicode="&#xd8;" glyph-name="Oslash" horiz-adv-x="666" d="M622 598T622 463Q622 417 612 342Q594 207 558 130T459 20T297 -13Q217 -13 165 10L123 -60L82 -35L125 35Q59 92 59 229Q59 282 68 348Q86 481 122 557T221 668T387 703Q467 703 516 680L560
753L602 729L557 655Q622 598 622 463ZM150 275T150 223Q150 151 173 116L472 608Q439 624 382 624Q311 624 268 599T200 513T160 342Q150 275 150 223ZM532 425T532 471Q532 542 509 576L210 83Q241 66 299 66Q369 66 411 92T479 178T521 348Q532 425 532 471Z"
/>
<glyph unicode="&#xd9;" glyph-name="Ugrave" horiz-adv-x="664" d="M579 263Q564 162 532 102T443 14T298 -13Q182 -13 127 34T72 188Q72 224 78 267L136 690H225L165 263Q159 223 159 191Q159 122 190 94T296 66Q358 66 397 85T458 148T492 267L550 690H639L579
263ZM443 766L412 728L227 853L273 913L443 766Z" />
<glyph unicode="&#xda;" glyph-name="Uacute" horiz-adv-x="664" d="M579 263Q564 162 532 102T443 14T298 -13Q182 -13 127 34T72 188Q72 224 78 267L136 690H225L165 263Q159 223 159 191Q159 122 190 94T296 66Q358 66 397 85T458 148T492 267L550 690H639L579
263ZM562 848L355 728L329 767L521 914L562 848Z" />
<glyph unicode="&#xdb;" glyph-name="Ucircumflex" horiz-adv-x="664" d="M579 263Q564 162 532 102T443 14T298 -13Q182 -13 127 34T72 188Q72 224 78 267L136 690H225L165 263Q159 223 159 191Q159 122 190 94T296 66Q358 66 397 85T458 148T492 267L550 690H639L579
263ZM565 763L533 730L414 831H406L257 731L232 769L381 896H441L565 763Z" />
<glyph unicode="&#xdc;" glyph-name="Udieresis" horiz-adv-x="664" d="M579 263Q564 162 532 102T443 14T298 -13Q182 -13 127 34T72 188Q72 224 78 267L136 690H225L165 263Q159 223 159 191Q159 122 190 94T296 66Q358 66 397 85T458 148T492 267L550 690H639L579
263ZM353 870T357 864T360 846L352 791Q349 767 325 767H297Q273 767 276 790L284 846Q289 870 312 870H338Q353 870 357 864ZM522 870T526 864T529 846L521 791Q518 767 494 767H466Q442 767 445 790L453 846Q458 870 481 870H507Q522 870 526 864Z" />
<glyph unicode="&#xdd;" glyph-name="Yacute" horiz-adv-x="565" d="M316 241L283 0H194L229 244L64 690H154L258 397Q273 352 278 319H286Q301 359 327 400L513 690H609L316 241ZM504 848L297 728L271 767L463 914L504 848Z" />
<glyph unicode="&#xde;" glyph-name="Thorn" horiz-adv-x="589" d="M461 567T509 532T557 410Q557 384 552 346Q540 261 513 215T440 150T316 131Q230 131 153 140L133 0H45L142 690H230L212 565Q252 567 358 567Q461 567 509 532ZM469 380T469 404Q469 455 444
473T355 492Q242 492 202 491L162 207H305Q359 208 390 220T438 263T465 353Q469 380 469 404Z" />
<glyph unicode="&#xdf;" glyph-name="germandbls" horiz-adv-x="672" d="M582 219T599 196T616 136Q616 128 614 110Q607 60 584 34T521 -1T420 -11Q338 -11 261 0L271 65Q353 61 386 61Q438 61 465 65T508 82T528 122L529 133Q529 155 518 166T479 196L378 257Q311
297 311 355Q311 390 327 414T369 454T447 498Q492 524 510 544T529 599Q529 625 503 638T401 651Q341 651 308 641T258 606T234 532L150 -60Q139 -132 101 -166T-10 -201Q-57 -201 -120 -194L-107 -130H-31Q17 -130 38 -113T67 -47L133 420H44L53 481L142 487L150
544Q161 619 191 657T269 708T394 721Q511 721 561 697T612 613Q612 561 590 527T506 456L484 445Q441 424 420 408T394 367Q393 364 393 359Q393 343 404 332T445 302L543 243Q582 219 599 196Z" />
<glyph unicode="&#xe0;" glyph-name="agrave" horiz-adv-x="573" d="M345 499T407 493T523 476L456 0H389L395 98Q352 48 296 18T178 -12Q108 -12 75 24T42 144Q42 189 51 249Q66 356 96 409T171 481T294 499Q345 499 407 493ZM242 62T290 89T394 171L430 425Q358
428 320 428Q250 428 216 415T166 364T136 242Q127 179 127 142Q127 96 142 79T195 62Q242 62 290 89ZM376 587L345 549L160 674L206 734L376 587Z" />
<glyph unicode="&#xe1;" glyph-name="aacute" horiz-adv-x="573" d="M345 499T407 493T523 476L456 0H389L395 98Q352 48 296 18T178 -12Q108 -12 75 24T42 144Q42 189 51 249Q66 356 96 409T171 481T294 499Q345 499 407 493ZM242 62T290 89T394 171L430 425Q358
428 320 428Q250 428 216 415T166 364T136 242Q127 179 127 142Q127 96 142 79T195 62Q242 62 290 89ZM494 669L287 549L261 588L453 735L494 669Z" />
<glyph unicode="&#xe2;" glyph-name="acircumflex" horiz-adv-x="573" d="M345 499T407 493T523 476L456 0H389L395 98Q352 48 296 18T178 -12Q108 -12 75 24T42 144Q42 189 51 249Q66 356 96 409T171 481T294 499Q345 499 407 493ZM242 62T290 89T394 171L430
425Q358 428 320 428Q250 428 216 415T166 364T136 242Q127 179 127 142Q127 96 142 79T195 62Q242 62 290 89ZM498 583L466 550L347 651H339L190 551L165 589L314 716H374L498 583Z" />
<glyph unicode="&#xe3;" glyph-name="atilde" horiz-adv-x="573" d="M345 499T407 493T523 476L456 0H389L395 98Q352 48 296 18T178 -12Q108 -12 75 24T42 144Q42 189 51 249Q66 356 96 409T171 481T294 499Q345 499 407 493ZM242 62T290 89T394 171L430 425Q358
428 320 428Q250 428 216 415T166 364T136 242Q127 179 127 142Q127 96 142 79T195 62Q242 62 290 89ZM278 700T296 693T339 670Q360 657 375 651T412 644Q435 644 446 657T461 697L501 694Q500 639 475 610T412 583Q385 585 366 593T323 617Q305 629 291 635T261
641Q237 641 226 627T210 584L170 588Q172 643 195 671T253 700Q278 700 296 693Z" />
<glyph unicode="&#xe4;" glyph-name="adieresis" horiz-adv-x="573" d="M345 499T407 493T523 476L456 0H389L395 98Q352 48 296 18T178 -12Q108 -12 75 24T42 144Q42 189 51 249Q66 356 96 409T171 481T294 499Q345 499 407 493ZM242 62T290 89T394 171L430 425Q358
428 320 428Q250 428 216 415T166 364T136 242Q127 179 127 142Q127 96 142 79T195 62Q242 62 290 89ZM286 946T290 940T293 922L285 867Q282 843 258 843H230Q206 843 209 866L217 922Q222 946 245 946H271Q286 946 290 940ZM455 946T459 940T462 922L454 867Q451
843 427 843H399Q375 843 378 866L386 922Q391 946 414 946H440Q455 946 459 940Z" />
<glyph unicode="&#xe5;" glyph-name="aring" horiz-adv-x="573" d="M345 499T407 493T523 476L456 0H389L395 98Q352 48 296 18T178 -12Q108 -12 75 24T42 144Q42 189 51 249Q66 356 96 409T171 481T294 499Q345 499 407 493ZM242 62T290 89T394 171L430 425Q358
428 320 428Q250 428 216 415T166 364T136 242Q127 179 127 142Q127 96 142 79T195 62Q242 62 290 89ZM387 745T415 719T443 649Q443 600 411 568T329 535Q284 535 256 561T228 631Q228 680 260 712T342 745Q387 745 415 719ZM311 701T294 683T276 635Q276 610
290 595T331 579Q359 579 377 598T395 646Q395 671 381 686T341 701Q311 701 294 683Z" />
<glyph unicode="&#xe6;" glyph-name="ae" horiz-adv-x="873" d="M749 499T792 470T835 379Q835 363 832 343Q820 274 778 244T647 207L467 190Q465 138 479 110T521 71T597 60Q685 60 772 72L778 15Q745 1 689 -5T582 -12Q501 -12 454 14T390 97Q348 47 293 18T175
-12Q106 -12 74 25T42 146Q42 197 50 249Q65 355 95 409T171 481T292 499Q394 499 509 477Q560 499 651 499Q749 499 792 470ZM238 62T283 87T380 163Q379 170 379 185Q379 218 385 255Q400 370 440 424L404 425Q350 428 318 428Q249 428 216 415T167 364T138 242Q128
170 128 141Q128 96 143 79T192 62Q238 62 283 87ZM749 368T749 374Q749 399 737 410T703 425T640 428Q584 428 553 415T503 364T473 254L646 271Q695 275 717 291T747 350Q749 368 749 374Z" />
<glyph unicode="&#xe7;" glyph-name="ccedilla" horiz-adv-x="484" d="M348 499T390 493T464 475L450 422Q396 427 322 427Q259 427 223 412T165 356T135 240Q130 195 130 171Q130 126 143 102T184 69T261 60Q345 60 407 70L413 12Q337 -12 246 -12Q138 -12 89
30T40 168Q40 204 46 247Q60 341 89 395T171 474T308 499Q348 499 390 493ZM206 -53T216 -53Q252 -53 270 -65T288 -105Q288 -110 286 -124Q277 -179 236 -211T134 -243Q124 -243 104 -241L120 -196Q160 -197 190 -177T225 -123Q226 -120 226 -115Q226 -104 215
-100T172 -95L182 -55Q206 -53 216 -53Z" />
<glyph unicode="&#xe8;" glyph-name="egrave" horiz-adv-x="537" d="M411 499T454 470T498 381Q498 363 495 343Q483 274 441 244T310 207L130 190Q129 138 143 110T185 71T260 60Q346 60 439 72L445 15Q410 1 354 -5T246 -12Q139 -12 91 34T42 179Q42 213 48
255Q62 352 91 404T173 477T314 499Q411 499 454 470ZM413 368T413 373Q413 398 401 410T367 425T303 428Q247 428 216 415T166 365T136 254L309 271Q359 275 381 291T411 350Q413 368 413 373ZM370 587L339 549L154 674L200 734L370 587Z" />
<glyph unicode="&#xe9;" glyph-name="eacute" horiz-adv-x="537" d="M411 499T454 470T498 381Q498 363 495 343Q483 274 441 244T310 207L130 190Q129 138 143 110T185 71T260 60Q346 60 439 72L445 15Q410 1 354 -5T246 -12Q139 -12 91 34T42 179Q42 213 48
255Q62 352 91 404T173 477T314 499Q411 499 454 470ZM413 368T413 373Q413 398 401 410T367 425T303 428Q247 428 216 415T166 365T136 254L309 271Q359 275 381 291T411 350Q413 368 413 373ZM489 669L282 549L256 588L448 735L489 669Z" />
<glyph unicode="&#xea;" glyph-name="ecircumflex" horiz-adv-x="537" d="M411 499T454 470T498 381Q498 363 495 343Q483 274 441 244T310 207L130 190Q129 138 143 110T185 71T260 60Q346 60 439 72L445 15Q410 1 354 -5T246 -12Q139 -12 91 34T42 179Q42 213
48 255Q62 352 91 404T173 477T314 499Q411 499 454 470ZM413 368T413 373Q413 398 401 410T367 425T303 428Q247 428 216 415T166 365T136 254L309 271Q359 275 381 291T411 350Q413 368 413 373ZM492 583L460 550L341 651H333L184 551L159 589L308 716H368L492
583Z" />
<glyph unicode="&#xeb;" glyph-name="edieresis" horiz-adv-x="537" d="M411 499T454 470T498 381Q498 363 495 343Q483 274 441 244T310 207L130 190Q129 138 143 110T185 71T260 60Q346 60 439 72L445 15Q410 1 354 -5T246 -12Q139 -12 91 34T42 179Q42 213
48 255Q62 352 91 404T173 477T314 499Q411 499 454 470ZM413 368T413 373Q413 398 401 410T367 425T303 428Q247 428 216 415T166 365T136 254L309 271Q359 275 381 291T411 350Q413 368 413 373ZM280 946T284 940T287 922L279 867Q276 843 252 843H224Q200 843
203 866L211 922Q216 946 239 946H265Q280 946 284 940ZM449 946T453 940T456 922L448 867Q445 843 421 843H393Q369 843 372 866L380 922Q385 946 408 946H434Q449 946 453 940Z" />
<glyph unicode="&#xec;" glyph-name="igrave" horiz-adv-x="246" d="M124 0H39L108 487H193L124 0ZM469 587L438 549L253 674L299 734L469 587Z" />
<glyph unicode="&#xed;" glyph-name="iacute" horiz-adv-x="246" d="M124 0H39L108 487H193L124 0ZM588 669L381 549L355 588L547 735L588 669Z" />
<glyph unicode="&#xee;" glyph-name="icircumflex" horiz-adv-x="246" d="M124 0H39L108 487H193L124 0ZM591 583L559 550L440 651H432L283 551L258 589L407 716H467L591 583Z" />
<glyph unicode="&#xef;" glyph-name="idieresis" horiz-adv-x="246" d="M124 0H39L108 487H193L124 0ZM379 946T383 940T386 922L378 867Q375 843 351 843H323Q299 843 302 866L310 922Q315 946 338 946H364Q379 946 383 940ZM548 946T552 940T555 922L547 867Q544
843 520 843H492Q468 843 471 866L479 922Q484 946 507 946H533Q548 946 552 940Z" />
<glyph unicode="&#xf0;" glyph-name="eth" horiz-adv-x="555" d="M498 542T498 383Q498 332 491 279Q479 183 452 120T371 22T230 -13Q132 -13 86 30T40 162Q40 194 44 222Q58 332 112 390T269 448Q360 448 412 394Q412 520 356 579L267 518L244 552L321 606Q291
624 254 630T168 636L181 698Q308 701 384 651L468 710L493 674L418 622Q498 542 498 383ZM289 59T323 83T376 158T405 291Q409 323 410 338Q359 377 287 377Q214 377 179 337T132 216Q128 189 128 163Q128 107 153 83T234 59Q289 59 323 83Z" />
<glyph unicode="&#xf1;" glyph-name="ntilde" horiz-adv-x="578" d="M455 499T486 471T517 391Q517 382 515 364L463 0H378L427 343Q429 365 429 372Q429 402 416 414T374 427Q331 427 285 402T164 318L120 0H35L104 487H172L165 380Q234 440 290 469T400 499Q455
499 486 471ZM282 700T300 693T343 670Q364 657 379 651T416 644Q439 644 450 657T465 697L505 694Q504 639 479 610T416 583Q389 585 370 593T327 617Q309 629 295 635T265 641Q241 641 230 627T214 584L174 588Q176 643 199 671T257 700Q282 700 300 693Z" />
<glyph unicode="&#xf2;" glyph-name="ograve" horiz-adv-x="564" d="M413 499T461 457T510 318Q510 283 504 239Q491 146 461 92T379 12T245 -13Q139 -13 90 30T40 172Q40 206 46 246Q59 339 88 394T170 474T307 499Q413 499 461 457ZM252 427T219 411T166 354T135
239Q129 197 129 166Q129 106 155 83T245 59Q301 59 334 76T387 133T417 246Q423 290 423 320Q423 380 397 403T307 427Q252 427 219 411ZM370 587L339 549L154 674L200 734L370 587Z" />
<glyph unicode="&#xf3;" glyph-name="oacute" horiz-adv-x="564" d="M413 499T461 457T510 318Q510 283 504 239Q491 146 461 92T379 12T245 -13Q139 -13 90 30T40 172Q40 206 46 246Q59 339 88 394T170 474T307 499Q413 499 461 457ZM252 427T219 411T166 354T135
239Q129 197 129 166Q129 106 155 83T245 59Q301 59 334 76T387 133T417 246Q423 290 423 320Q423 380 397 403T307 427Q252 427 219 411ZM489 669L282 549L256 588L448 735L489 669Z" />
<glyph unicode="&#xf4;" glyph-name="ocircumflex" horiz-adv-x="564" d="M413 499T461 457T510 318Q510 283 504 239Q491 146 461 92T379 12T245 -13Q139 -13 90 30T40 172Q40 206 46 246Q59 339 88 394T170 474T307 499Q413 499 461 457ZM252 427T219 411T166
354T135 239Q129 197 129 166Q129 106 155 83T245 59Q301 59 334 76T387 133T417 246Q423 290 423 320Q423 380 397 403T307 427Q252 427 219 411ZM492 583L460 550L341 651H333L184 551L159 589L308 716H368L492 583Z" />
<glyph unicode="&#xf5;" glyph-name="otilde" horiz-adv-x="564" d="M413 499T461 457T510 318Q510 283 504 239Q491 146 461 92T379 12T245 -13Q139 -13 90 30T40 172Q40 206 46 246Q59 339 88 394T170 474T307 499Q413 499 461 457ZM252 427T219 411T166 354T135
239Q129 197 129 166Q129 106 155 83T245 59Q301 59 334 76T387 133T417 246Q423 290 423 320Q423 380 397 403T307 427Q252 427 219 411ZM272 700T290 693T333 670Q354 657 369 651T406 644Q429 644 440 657T455 697L495 694Q494 639 469 610T406 583Q379 585
360 593T317 617Q299 629 285 635T255 641Q231 641 220 627T204 584L164 588Q166 643 189 671T247 700Q272 700 290 693Z" />
<glyph unicode="&#xf6;" glyph-name="odieresis" horiz-adv-x="564" d="M413 499T461 457T510 318Q510 283 504 239Q491 146 461 92T379 12T245 -13Q139 -13 90 30T40 172Q40 206 46 246Q59 339 88 394T170 474T307 499Q413 499 461 457ZM252 427T219 411T166
354T135 239Q129 197 129 166Q129 106 155 83T245 59Q301 59 334 76T387 133T417 246Q423 290 423 320Q423 380 397 403T307 427Q252 427 219 411ZM280 946T284 940T287 922L279 867Q276 843 252 843H224Q200 843 203 866L211 922Q216 946 239 946H265Q280 946
284 940ZM449 946T453 940T456 922L448 867Q445 843 421 843H393Q369 843 372 866L380 922Q385 946 408 946H434Q449 946 453 940Z" />
<glyph unicode="&#xf7;" glyph-name="divide" horiz-adv-x="567" d="M354 524T354 501Q354 494 353 491L347 442Q343 413 313 413H291Q257 413 261 446L268 494Q270 510 278 517T302 525H324Q354 524 354 501ZM498 263H60L70 327H508L498 263ZM309 176T305 142L297
93Q294 64 264 64H241Q224 64 218 72T213 98L220 145Q223 176 252 176H275Q309 176 305 142Z" />
<glyph unicode="&#xf8;" glyph-name="oslash" horiz-adv-x="564" d="M478 449T494 412T510 317Q510 283 504 239Q491 146 461 92T379 12T245 -13Q193 -13 157 -3L113 -75L76 -53L116 12Q40 52 40 172Q40 206 46 246Q59 339 88 394T170 474T307 499Q362 499 403
487L449 563L487 541L444 470Q478 449 494 412ZM129 197T129 166Q129 106 157 81L363 421Q340 427 307 427Q252 427 219 411T166 354T135 239Q129 197 129 166ZM423 290T423 320Q423 374 401 399L197 63Q216 59 245 59Q301 59 334 76T387 133T417 246Q423 290 423
320Z" />
<glyph unicode="&#xf9;" glyph-name="ugrave" horiz-adv-x="567" d="M518 487L450 0H384L391 105Q329 45 275 16T166 -13Q108 -13 78 15T48 93Q48 113 50 123L101 487H186L137 144Q135 134 135 117Q135 87 149 74T195 61Q238 61 280 86T391 174L433 487H518ZM375
590L344 552L159 677L205 737L375 590Z" />
<glyph unicode="&#xfa;" glyph-name="uacute" horiz-adv-x="567" d="M518 487L450 0H384L391 105Q329 45 275 16T166 -13Q108 -13 78 15T48 93Q48 113 50 123L101 487H186L137 144Q135 134 135 117Q135 87 149 74T195 61Q238 61 280 86T391 174L433 487H518ZM493
672L286 552L260 591L452 738L493 672Z" />
<glyph unicode="&#xfb;" glyph-name="ucircumflex" horiz-adv-x="567" d="M518 487L450 0H384L391 105Q329 45 275 16T166 -13Q108 -13 78 15T48 93Q48 113 50 123L101 487H186L137 144Q135 134 135 117Q135 87 149 74T195 61Q238 61 280 86T391 174L433 487H518ZM496
587L464 554L345 655H337L188 555L163 593L312 720H372L496 587Z" />
<glyph unicode="&#xfc;" glyph-name="udieresis" horiz-adv-x="567" d="M518 487L450 0H384L391 105Q329 45 275 16T166 -13Q108 -13 78 15T48 93Q48 113 50 123L101 487H186L137 144Q135 134 135 117Q135 87 149 74T195 61Q238 61 280 86T391 174L433 487H518ZM284
694T288 688T291 670L283 615Q280 591 256 591H228Q204 591 207 614L215 670Q220 694 243 694H269Q284 694 288 688ZM453 694T457 688T460 670L452 615Q449 591 425 591H397Q373 591 376 614L384 670Q389 694 412 694H438Q453 694 457 688Z" />
<glyph unicode="&#xfd;" glyph-name="yacute" horiz-adv-x="539" d="M523 487Q497 372 463 275T375 81Q323 -17 273 -75T170 -164T51 -206L35 -145Q96 -131 144 -98T239 0H195Q173 0 158 12T138 45L44 487H133L210 86Q215 67 233 67H281L301 106Q350 202 381 289T435
487H523ZM461 669L254 549L228 588L420 735L461 669Z" />
<glyph unicode="&#xfe;" glyph-name="thorn" horiz-adv-x="573" d="M451 499T484 463T517 338Q517 299 509 238Q494 132 464 78T389 5T271 -13Q207 -13 120 -1Q117 -38 110 -73L92 -201H8L134 700H219L193 513Q184 447 173 404L174 399Q217 445 271 472T384 499Q451
499 484 463ZM430 309T430 346Q430 391 416 408T365 425Q317 425 269 398T164 313L130 62Q202 59 240 59Q310 59 343 72T392 122T421 244Q430 309 430 346Z" />
<glyph unicode="&#xff;" glyph-name="ydieresis" horiz-adv-x="539" d="M523 487Q497 372 463 275T375 81Q323 -17 273 -75T170 -164T51 -206L35 -145Q96 -131 144 -98T239 0H195Q173 0 158 12T138 45L44 487H133L210 86Q215 67 233 67H281L301 106Q350 202 381
289T435 487H523ZM252 946T256 940T259 922L251 867Q248 843 224 843H196Q172 843 175 866L183 922Q188 946 211 946H237Q252 946 256 940ZM421 946T425 940T428 922L420 867Q417 843 393 843H365Q341 843 344 866L352 922Q357 946 380 946H406Q421 946 425 940Z"
/>
<glyph unicode="&#x2013;" glyph-name="endash" horiz-adv-x="591" d="M509 220H61L70 285H518L509 220Z" />
<glyph unicode="&#x2014;" glyph-name="emdash" horiz-adv-x="895" d="M813 220H61L70 285H822L813 220Z" />
<glyph unicode="&#x2018;" glyph-name="quoteleft" horiz-adv-x="217" d="M95 491T95 512Q95 518 96 521L104 582Q114 647 160 725L201 711Q199 706 194 688Q178 642 169 599Q183 600 190 593T195 574L186 519Q183 502 176 497T148 491H123Q95 491 95 512Z" />
<glyph unicode="&#x2019;" glyph-name="quoteright" horiz-adv-x="215" d="M208 716T208 695Q208 689 207 685L199 625Q189 560 143 482L102 495L109 517Q128 575 134 607Q120 606 113 613T108 633L117 688Q120 705 127 710T155 716H180Q208 716 208 695Z" />
<glyph unicode="&#x201a;" glyph-name="quotesinglbase" horiz-adv-x="228" d="M132 110T132 89Q132 83 131 79L122 19Q114 -44 66 -125L24 -111Q26 -106 31 -88Q47 -42 56 1Q42 0 36 7T30 27L39 82Q43 98 50 104T78 110H104Q132 110 132 89Z" />
<glyph unicode="&#x201c;" glyph-name="quotedblleft" horiz-adv-x="369" d="M95 491T95 512Q95 518 96 521L104 582Q114 647 160 725L201 711Q199 706 194 688Q178 642 169 599Q183 600 190 593T195 574L186 519Q183 502 176 497T148 491H123Q95 491 95 512ZM261
491T255 495T248 511Q248 517 249 521L257 582Q265 646 312 725L354 711Q345 684 337 657T322 599Q335 600 342 593T348 574L339 519Q335 502 328 497T301 491H275Q261 491 255 495Z" />
<glyph unicode="&#x201d;" glyph-name="quotedblright" horiz-adv-x="368" d="M208 716T208 695Q208 689 207 685L199 625Q189 560 143 482L102 495L109 517Q128 575 134 607Q120 606 113 613T108 633L117 688Q120 705 127 710T155 716H180Q208 716 208 695ZM361
716T361 695Q361 689 360 685L351 625Q343 561 296 482L254 495Q264 522 272 550T286 607Q273 606 266 613T261 633L269 688Q273 705 280 710T307 716H333Q361 716 361 695Z" />
<glyph unicode="&#x201e;" glyph-name="quotedblbase" horiz-adv-x="380" d="M130 109T130 88Q130 82 129 78L121 18Q111 -49 65 -125L24 -112Q26 -107 31 -89Q47 -43 56 0Q42 -1 35 6T30 26L39 81Q42 98 49 103T77 109H102Q130 109 130 88ZM283 109T283 88Q283
82 282 78L273 18Q265 -48 218 -125L176 -112Q178 -106 189 -73T208 0Q195 -1 188 6T183 26L191 81Q195 98 202 103T229 109H255Q283 109 283 88Z" />
<glyph unicode="&#x2022;" glyph-name="bullet" horiz-adv-x="361" d="M235 358T253 344T271 296Q271 289 269 273L267 260Q260 211 241 194T174 177H162Q120 177 102 191T84 239Q84 245 86 265L88 278Q94 325 114 341T183 358H195Q235 358 253 344Z" />
<glyph unicode="&#x2039;" glyph-name="guilsinglleft" horiz-adv-x="296" d="M260 427L107 250L216 68L173 39L37 246L38 265L225 459L260 427Z" />
<glyph unicode="&#x203a;" glyph-name="guilsinglright" horiz-adv-x="297" d="M247 253L246 234L59 39L24 71L177 249L69 431L111 459L247 253Z" />
</font>
</defs>
</svg>
